<svg width="564" height="150" viewBox="0 0 564 150" fill="none" xmlns="http://www.w3.org/2000/svg">
<path fill-rule="evenodd" clip-rule="evenodd" d="M90.1869 1.25515L47.0985 21.3476C40.5066 24.4215 37.6321 32.3191 40.7059 38.911C43.7798 45.5029 51.6774 48.3774 58.2693 45.3035L72.3642 38.731L50.4522 98.9337L26.4303 32.9342C23.9455 26.1072 16.3968 22.5872 9.56975 25.072C2.74274 27.5568 -0.777296 35.1056 1.70753 41.9326L37.701 140.824C38.5332 143.11 39.9333 145.026 41.6842 146.469C42.9379 147.638 44.4422 148.58 46.1546 149.203C52.9816 151.688 60.5303 148.168 63.0151 141.341L75.8106 106.186C76.0156 105.767 76.2004 105.333 76.3635 104.885L97.2144 47.5977L103.887 61.907C106.961 68.4989 114.858 71.3734 121.45 68.2995C124.827 66.7251 127.121 64.0894 128.279 60.9068C129.438 57.7241 129.417 54.1125 127.8 50.854L107.707 7.76556C106.208 4.55001 103.615 2.13791 100.315 0.936625C96.9392 -0.425435 93.2846 -0.287192 90.1869 1.25515Z" fill="url(#paint0_linear_3392_4779)"/>
<path d="M175.891 113.162L149.089 35.6567H164.343L183.518 97.1558H184.431L203.605 35.6567H218.913L192.111 113.162H175.891Z" fill="#001A42"/>
<path d="M249.904 114.343C232.448 114.343 221.867 102.634 221.867 83.9429V83.8892C221.867 65.4126 232.556 53.3276 249.26 53.3276C265.964 53.3276 276.276 65.0366 276.276 82.7612V87.1655H235.241C235.402 97.6929 241.096 103.816 250.173 103.816C257.424 103.816 261.56 100.164 262.849 97.478L263.01 97.1021H275.739L275.578 97.5854C273.698 105.159 265.856 114.343 249.904 114.343ZM249.421 63.8013C241.955 63.8013 236.369 68.8501 235.349 78.1958H263.225C262.312 68.5815 256.887 63.8013 249.421 63.8013Z" fill="#001A42"/>
<path d="M289.65 113.162V54.4556H303.024V63.4253H303.938C306.73 57.1411 312.37 53.3276 320.856 53.3276C333.962 53.3276 341.105 61.2231 341.105 75.188V113.162H327.731V78.3032C327.731 69.1724 324.025 64.5532 315.915 64.5532C307.966 64.5532 303.024 70.1392 303.024 78.9478V113.162H289.65Z" fill="#001A42"/>
<path d="M379.992 113.43C366.511 113.43 360.979 108.918 360.979 97.5854V64.8218H351.848V54.4556H360.979V40.061H374.567V54.4556H386.975V64.8218H374.567V94.4165C374.567 100.271 376.877 102.742 382.463 102.742C384.343 102.742 385.363 102.688 386.975 102.527V112.839C385.041 113.215 382.57 113.43 379.992 113.43Z" fill="#001A42"/>
<path d="M419.738 114.343C406.525 114.343 399.758 106.394 399.758 92.4292V54.4556H413.132V89.3677C413.132 98.4448 416.516 103.064 424.572 103.064C433.22 103.064 437.839 97.478 437.839 88.6694V54.4556H451.213V113.162H437.839V104.246H436.926C434.187 110.53 428.225 114.343 419.738 114.343Z" fill="#001A42"/>
<path d="M467.541 113.162V54.4556H480.915V63.479H481.828C483.815 57.1948 489.187 53.4888 496.921 53.4888C498.962 53.4888 501.057 53.7573 502.346 54.1333V66.1108C500.197 65.6812 497.995 65.3589 495.686 65.3589C486.77 65.3589 480.915 70.6763 480.915 79.0552V113.162H467.541Z" fill="#001A42"/>
<path d="M536.936 114.343C519.479 114.343 508.898 102.634 508.898 83.9429V83.8892C508.898 65.4126 519.587 53.3276 536.291 53.3276C552.995 53.3276 563.308 65.0366 563.308 82.7612V87.1655H522.272C522.434 97.6929 528.127 103.816 537.204 103.816C544.455 103.816 548.591 100.164 549.88 97.478L550.041 97.1021H562.771L562.609 97.5854C560.729 105.159 552.888 114.343 536.936 114.343ZM536.452 63.8013C528.986 63.8013 523.4 68.8501 522.38 78.1958H550.256C549.343 68.5815 543.918 63.8013 536.452 63.8013Z" fill="#001A42"/>
<defs>
<linearGradient id="paint0_linear_3392_4779" x1="103.675" y1="0.125939" x2="45.3414" y2="150.126" gradientUnits="userSpaceOnUse">
<stop stop-color="#00D8FF"/>
<stop offset="0.5" stop-color="#5B50F6"/>
<stop offset="1" stop-color="#F422A4"/>
</linearGradient>
</defs>
</svg>
